<svg xmlns="http://www.w3.org/2000/svg" xmlns:xlink="http://www.w3.org/1999/xlink" version="1.1" id="Your_Icon" x="0px" y="0px" width="100px" height="100px" viewBox="0 0 100 100" enable-background="new 0 0 100 100" xml:space="preserve">
<g>
	<path fill="none" d="M36.675,23.314c1.179-0.009,13.648-0.091,22.087-0.267H14.587C23.028,23.223,35.496,23.305,36.675,23.314z"/>
	<path fill="none" d="M19.205,82.578c0.96,3.691,4.803,2.308,4.803,2.308V35.974H15.62C15.619,35.974,18.244,78.887,19.205,82.578z"/>
	<rect x="32.653" y="35.974" fill="none" width="6.051" height="49.167"/>
	<path fill="none" d="M47.158,84.886c0,0,3.844,1.384,4.805-2.308c0.96-3.691,3.586-46.604,3.586-46.604h-8.391V84.886z"/>
	<path fill="none" d="M70.637,40.357c-1.203,1.618-2.342,2.486-3.373,2.878c-0.287,9.637-1.223,20.373-2.089,28.867   c3.011,1.659,7.864,3.656,11.438,1.825c5.037-2.581,10.232-8.032,7.986-20.684C82.354,40.593,75.512,33.8,70.637,40.357z"/>
	<path d="M91.914,55.736c-1.941-21.29-12.282-25.768-18.006-24.683c-3.65,0.692-5.426,0.749-6.698,0.499   c-0.173-3.361-0.513-6.277-1.069-8.504h0.055c0.201-0.749,0.309-1.535,0.309-2.346c0-4.008-2.613-7.414-6.258-8.663   c0.014-0.169,0.021-0.34,0.021-0.512c0-4.008-3.55-7.258-7.928-7.258c-1.66,0-3.199,0.468-4.47,1.264   c-2.556-1.889-5.727-3.008-9.161-3.008c-3.7,0-7.093,1.298-9.741,3.46c-1.387-1.067-3.22-1.716-5.23-1.716   c-3.982,0-7.268,2.546-7.767,5.841c-5.033,0.531-8.976,5.409-8.976,11.351c0,0.539,0.035,1.067,0.097,1.586h0.119   c-3.786,15.081,2.49,61.715,2.637,64.416c0.149,2.717,2.82,8.153,10.1,8.68c6.591,0.476,15.056,0.572,16.603,0.588l0,0   c0,0,0.044,0,0.124,0c0.081,0,0.125,0,0.125,0l0,0c1.545-0.016,10.012-0.112,16.601-0.588c7.281-0.525,9.951-5.963,10.102-8.68   c0.032-0.597,0.364-3.338,0.82-7.411c0.929-0.538,1.738-0.146,10.044,1.183C85.863,83.073,93.064,66.669,91.914,55.736z    M19.371,13.245c0.418-2.497,3.165-4.425,6.496-4.425c1.682,0,3.214,0.492,4.374,1.3c2.214-1.638,5.053-2.622,8.147-2.622   c2.872,0,5.524,0.848,7.661,2.28c1.065-0.604,2.353-0.958,3.74-0.958c3.662,0,6.632,2.462,6.632,5.499   c0,0.131-0.008,0.259-0.019,0.388c3.047,0.947,5.232,3.527,5.232,6.563c0,0.593-0.085,1.167-0.24,1.717   c-0.814,0.021-1.699,0.042-2.633,0.061c-8.438,0.175-20.908,0.258-22.087,0.267c-1.18-0.009-13.647-0.091-22.088-0.267   c-0.94-0.019-1.83-0.04-2.649-0.061c-0.047-0.374-0.075-0.754-0.075-1.141C11.863,17.343,15.161,13.648,19.371,13.245z    M24.007,84.886c0,0-3.843,1.384-4.803-2.308c-0.961-3.691-3.585-46.604-3.585-46.604h8.388V84.886z M38.705,85.141h-6.051V35.974   h6.051V85.141z M51.963,82.578c-0.961,3.691-4.805,2.308-4.805,2.308V35.974h8.391C55.549,35.974,52.923,78.887,51.963,82.578z    M76.613,73.927c-3.574,1.831-8.428-0.166-11.438-1.825c0.866-8.494,1.802-19.229,2.089-28.867c1.031-0.392,2.17-1.26,3.373-2.878   c4.875-6.557,11.717,0.236,13.965,12.886C86.848,65.895,81.65,71.346,76.613,73.927z"/>
</g>
</svg>